# xmcd
#
# Track frame offsets: 
#        150
#        18289
#        41541
#        84882
#        104629
#        127352
#        158715
#        182977
#        198031
#        211817
#        233691
#        259678
#        274992
#        301071
#        323183
#
# Disc length: 4750 seconds
#
# Revision: 0
# Processed by: cddbd v1.5.2PL0 Copyright (c) Steve Scherf et al.
# Submitted via: ExactAudioCopyFreeDBPlugin 1.0
#
DISCID=c7128c0f
DTITLE=Mick Martin and the Blues Rockers - Blow That Harp!
DYEAR=2014
DGENRE=Blues
TTITLE0=Ridin' on the L&N
TTITLE1=Dimples
TTITLE2=Wee Wee Hours
TTITLE3=Back Door Man
TTITLE4=Good Times
TTITLE5=Little By Little
TTITLE6=The Hunter
TTITLE7=Backseat Boogie
TTITLE8=Can't Get Excited
TTITLE9=I'm Leavin'
TTITLE10=Don't Let My Baby Ride
TTITLE11=29 Ways
TTITLE12=Born In Chicago
TTITLE13=Shake Your Money Maker
TTITLE14=Cristo Redentor
EXTD=
EXTT0=
EXTT1=
EXTT2=
EXTT3=
EXTT4=
EXTT5=
EXTT6=
EXTT7=
EXTT8=
EXTT9=
EXTT10=
EXTT11=
EXTT12=
EXTT13=
EXTT14=
PLAYORDER=
